g _eye
v 0.04295715 -0.07396419 0.7355162
v 0.06329844 -0.06772477 0.7302443
v 0.04427394 -0.07358597 0.7298189
v 0.04222516 -0.07479779 0.7426391
v 0.0656107 -0.07019348 0.7545255
v 0.04203198 -0.07563394 0.7497412
v 0.09212901 -0.06411432 0.7372885
v 0.04239842 -0.07660995 0.7546036
v 0.04310136 -0.07758597 0.7594519
v 0.04430575 -0.0785381 0.7648256
v 0.0459989 -0.07950871 0.7700214
v 0.04832118 -0.0797293 0.7739073
v 0.05111716 -0.0796302 0.7771674
v 0.05457701 -0.07925358 0.7796196
v 0.05857719 -0.0786224 0.781155
v 0.06362732 -0.07780541 0.7819142
v 0.06867486 -0.07714999 0.7819517
v 0.07437041 -0.07622384 0.7814129
v 0.07991958 -0.07539 0.7800116
v 0.08376473 -0.07433657 0.7783379
v 0.08704691 -0.07337363 0.7758027
v 0.09000675 -0.07190326 0.7720659
v 0.09184124 -0.07032326 0.7679082
v 0.09318669 -0.06872718 0.7628566
v 0.09381037 -0.06717661 0.7575147
v 0.09361931 -0.0657864 0.750421
v 0.09323498 -0.06461056 0.7433346
v 0.09025713 -0.06383737 0.7312859
v 0.0877106 -0.06392613 0.7261586
v 0.08456802 -0.06430741 0.7214491
v 0.08176044 -0.06477149 0.7182106
v 0.07774421 -0.06555118 0.7157388
v 0.07024462 -0.06735615 0.7140048
v 0.0619849 -0.06944253 0.7142338
v 0.05601723 -0.07100401 0.7149711
v 0.05090077 -0.07233743 0.7178885
v 0.04822031 -0.07285266 0.7208794
v 0.04632753 -0.0731986 0.724226
v -0.04295718 -0.07396419 0.7355162
v -0.04427393 -0.07358597 0.7298189
v -0.06329848 -0.06772477 0.7302443
v -0.04222516 -0.07479779 0.7426391
v -0.06561074 -0.07019348 0.7545255
v -0.04203199 -0.07563394 0.7497412
v -0.09212901 -0.06411432 0.7372886
v -0.04239848 -0.07660995 0.7546036
v -0.04310142 -0.07758597 0.7594519
v -0.04430581 -0.0785381 0.7648256
v -0.04599892 -0.07950872 0.7700214
v -0.04832124 -0.0797293 0.7739073
v -0.0511172 -0.0796302 0.7771674
v -0.05457705 -0.07925358 0.7796196
v -0.05857727 -0.0786224 0.781155
v -0.06362741 -0.07780541 0.7819142
v -0.06867492 -0.07714999 0.7819517
v -0.07437045 -0.07622384 0.7814129
v -0.07991967 -0.07539 0.7800116
v -0.08376478 -0.07433657 0.7783379
v -0.08704694 -0.07337363 0.7758027
v -0.0900068 -0.07190326 0.7720659
v -0.09184127 -0.07032327 0.7679082
v -0.09318677 -0.06872718 0.7628566
v -0.09381042 -0.06717661 0.7575147
v -0.09361931 -0.0657864 0.750421
v -0.09323499 -0.06461056 0.7433346
v -0.09025717 -0.06383737 0.7312859
v -0.0877106 -0.06392612 0.7261586
v -0.08456801 -0.06430741 0.7214491
v -0.08176044 -0.06477149 0.7182106
v -0.07774422 -0.06555118 0.7157388
v -0.07024462 -0.06735615 0.7140048
v -0.06198493 -0.06944253 0.7142338
v -0.05601725 -0.07100401 0.7149711
v -0.05090081 -0.07233743 0.7178885
v -0.0482203 -0.07285266 0.7208794
v -0.04632754 -0.0731986 0.724226

vn 0.2791549 0.9585329 0.05733364
vn 0.2028975 0.9755268 0.08473536
vn 0.2939783 0.9556114 -0.01958422
vn 0.252625 0.9610061 0.1124629
vn 0.1894773 0.9703398 0.1501302
vn 0.2499506 0.9576647 0.1428391
vn 0.150721 0.9825683 0.1088249
vn 0.25938 0.9409818 0.2174288
vn 0.2591053 0.9391707 0.2254392
vn 0.2503208 0.9374952 0.2417482
vn 0.2605679 0.9368219 0.233386
vn 0.2770943 0.9367751 0.2137082
vn 0.2693466 0.9379296 0.2184957
vn 0.2495978 0.9406685 0.2298777
vn 0.2138171 0.9461648 0.2430111
vn 0.159847 0.9540189 0.2535684
vn 0.1290272 0.9576723 0.2573241
vn 0.105613 0.9624014 0.2502586
vn 0.1116088 0.9595913 0.2583178
vn 0.1178845 0.9592561 0.2567702
vn 0.1140466 0.9593143 0.2582815
vn 0.1367104 0.9494191 0.2826899
vn 0.1387444 0.9495806 0.2811524
vn 0.1307523 0.9554448 0.2646302
vn 0.1271841 0.9660554 0.2248581
vn 0.1270024 0.9753273 0.1805741
vn 0.1434399 0.980403 0.1350368
vn 0.1452693 0.9862192 0.07917369
vn 0.1467291 0.9882793 0.04212588
vn 0.1535938 0.9880554 0.01247189
vn 0.1657259 0.9860957 -0.01225206
vn 0.1939653 0.9799137 -0.04633044
vn 0.2291047 0.9704329 -0.07596746
vn 0.2529413 0.9639432 -0.08266856
vn 0.2765187 0.9581633 -0.07389626
vn 0.2818725 0.9565726 -0.07427568
vn 0.2808916 0.9570508 -0.07178828
vn 0.2907776 0.9555288 -0.04912262
vn -0.2791553 0.9585328 0.05733419
vn -0.2939763 0.9556121 -0.01958348
vn -0.2028978 0.9755267 0.08473528
vn -0.2526248 0.9610061 0.1124632
vn -0.1894774 0.9703397 0.1501302
vn -0.24995 0.9576645 0.1428412
vn -0.1507206 0.9825683 0.1088248
vn -0.2593806 0.9409818 0.217428
vn -0.2591067 0.9391707 0.2254377
vn -0.2503186 0.9374958 0.2417481
vn -0.2605653 0.9368227 0.2333861
vn -0.2770942 0.936775 0.2137088
vn -0.2693465 0.9379297 0.2184957
vn -0.2495967 0.9406688 0.2298774
vn -0.2138165 0.9461648 0.2430116
vn -0.1598474 0.9540187 0.2535686
vn -0.1290252 0.9576727 0.2573237
vn -0.1056107 0.9624016 0.250259
vn -0.111609 0.9595909 0.2583191
vn -0.1178854 0.9592559 0.2567707
vn -0.1140464 0.9593145 0.2582811
vn -0.1367097 0.9494195 0.282689
vn -0.1387444 0.9495803 0.2811534
vn -0.1307534 0.9554443 0.2646313
vn -0.1271848 0.9660553 0.2248583
vn -0.1270031 0.9753272 0.1805745
vn -0.1434382 0.9804032 0.1350366
vn -0.1452701 0.9862191 0.07917421
vn -0.1467301 0.9882791 0.04212756
vn -0.1535938 0.9880554 0.01247139
vn -0.1657264 0.9860957 -0.01225047
vn -0.1939656 0.9799137 -0.04633087
vn -0.2291047 0.9704329 -0.07596792
vn -0.2529425 0.9639429 -0.08266861
vn -0.2765232 0.958162 -0.07389563
vn -0.2818727 0.9565723 -0.07427719
vn -0.2808886 0.9570517 -0.07178899
vn -0.2907768 0.9555292 -0.04912221

vt 0.01006575 0.8377002
vt 0.04105661 0.8314837
vt 0.01235831 0.8290707
vt 0.008348817 0.8485056
vt 0.04203383 0.8685797
vt 0.007377378 0.8593175
vt 0.08196998 0.8446927
vt 0.007269458 0.8668149
vt 0.007644739 0.8743328
vt 0.008718554 0.8826929
vt 0.01048811 0.8908514
vt 0.01349236 0.8969955
vt 0.01731141 0.9022039
vt 0.02219306 0.9062322
vt 0.02795793 0.9089084
vt 0.0352881 0.910519
vt 0.04261081 0.9110859
vt 0.0509363 0.910812
vt 0.05909054 0.909251
vt 0.06488135 0.907012
vt 0.06992053 0.9034423
vt 0.07469251 0.8979349
vt 0.07793646 0.8916295
vt 0.08055652 0.8839395
vt 0.08216988 0.8757396
vt 0.08273555 0.8648643
vt 0.08297397 0.8540044
vt 0.07984883 0.8353748
vt 0.07662443 0.827323
vt 0.07244921 0.8198447
vt 0.06860305 0.81463
vt 0.06292146 0.8105013
vt 0.05297893 0.8066081
vt 0.03958176 0.806631
vt 0.03069501 0.8072266
vt 0.02282408 0.8112301
vt 0.01868282 0.8156271
vt 0.01569573 0.8206373
vt 0.01006575 0.7259314
vt 0.01235831 0.7173018
vt 0.04105661 0.7197149
vt 0.008348817 0.7367368
vt 0.04203383 0.7568108
vt 0.007377378 0.7475487
vt 0.08196998 0.7329239
vt 0.007269458 0.7550461
vt 0.007644739 0.762564
vt 0.008718554 0.770924
vt 0.01048811 0.7790825
vt 0.01349236 0.7852267
vt 0.01731141 0.790435
vt 0.02219306 0.7944634
vt 0.02795793 0.7971395
vt 0.0352881 0.7987502
vt 0.04261081 0.7993171
vt 0.0509363 0.7990432
vt 0.05909054 0.7974821
vt 0.06488135 0.7952432
vt 0.06992053 0.7916735
vt 0.07469251 0.786166
vt 0.07793646 0.7798607
vt 0.08055652 0.7721707
vt 0.08216988 0.7639707
vt 0.08273555 0.7530954
vt 0.08297397 0.7422356
vt 0.07984883 0.723606
vt 0.07662443 0.7155541
vt 0.07244921 0.7080759
vt 0.06860305 0.7028612
vt 0.06313819 0.6987996
vt 0.05140891 0.6962488
vt 0.03967226 0.6956934
vt 0.03067225 0.6954646
vt 0.02282408 0.6994612
vt 0.01868282 0.7038583
vt 0.01569573 0.7088684

usemtl mouth_mat
usemap mouth_mat
f 1/1/1 2/2/2 3/3/3
f 4/4/4 2/2/2 1/1/1
f 4/4/4 5/5/5 2/2/2
f 6/6/6 5/5/5 4/4/4
f 2/2/2 5/5/5 7/7/7
f 8/8/8 5/5/5 6/6/6
f 9/9/9 5/5/5 8/8/8
f 9/9/9 10/10/10 5/5/5
f 5/5/5 10/10/10 11/11/11
f 5/5/5 11/11/11 12/12/12
f 5/5/5 12/12/12 13/13/13
f 5/5/5 13/13/13 14/14/14
f 5/5/5 14/14/14 15/15/15
f 5/5/5 15/15/15 16/16/16
f 5/5/5 16/16/16 17/17/17
f 5/5/5 17/17/17 18/18/18
f 5/5/5 18/18/18 19/19/19
f 5/5/5 19/19/19 20/20/20
f 5/5/5 20/20/20 21/21/21
f 5/5/5 21/21/21 22/22/22
f 5/5/5 22/22/22 23/23/23
f 5/5/5 23/23/23 24/24/24
f 5/5/5 24/24/24 25/25/25
f 26/26/26 5/5/5 25/25/25
f 27/27/27 5/5/5 26/26/26
f 7/7/7 5/5/5 27/27/27
f 2/2/2 7/7/7 28/28/28
f 29/29/29 2/2/2 28/28/28
f 30/30/30 2/2/2 29/29/29
f 31/31/31 2/2/2 30/30/30
f 32/32/32 2/2/2 31/31/31
f 33/33/33 2/2/2 32/32/32
f 34/34/34 2/2/2 33/33/33
f 35/35/35 2/2/2 34/34/34
f 36/36/36 2/2/2 35/35/35
f 37/37/37 2/2/2 36/36/36
f 38/38/38 2/2/2 37/37/37
f 3/3/3 2/2/2 38/38/38
f 39/39/39 40/40/40 41/41/41
f 42/42/42 39/39/39 41/41/41
f 42/42/42 41/41/41 43/43/43
f 44/44/44 42/42/42 43/43/43
f 41/41/41 45/45/45 43/43/43
f 46/46/46 44/44/44 43/43/43
f 47/47/47 46/46/46 43/43/43
f 47/47/47 43/43/43 48/48/48
f 43/43/43 49/49/49 48/48/48
f 43/43/43 50/50/50 49/49/49
f 43/43/43 51/51/51 50/50/50
f 43/43/43 52/52/52 51/51/51
f 43/43/43 53/53/53 52/52/52
f 43/43/43 54/54/54 53/53/53
f 43/43/43 55/55/55 54/54/54
f 43/43/43 56/56/56 55/55/55
f 43/43/43 57/57/57 56/56/56
f 43/43/43 58/58/58 57/57/57
f 43/43/43 59/59/59 58/58/58
f 43/43/43 60/60/60 59/59/59
f 43/43/43 61/61/61 60/60/60
f 43/43/43 62/62/62 61/61/61
f 43/43/43 63/63/63 62/62/62
f 64/64/64 63/63/63 43/43/43
f 65/65/65 64/64/64 43/43/43
f 45/45/45 65/65/65 43/43/43
f 41/41/41 66/66/66 45/45/45
f 67/67/67 66/66/66 41/41/41
f 68/68/68 67/67/67 41/41/41
f 69/69/69 68/68/68 41/41/41
f 70/70/70 69/69/69 41/41/41
f 71/71/71 70/70/70 41/41/41
f 72/72/72 71/71/71 41/41/41
f 73/73/73 72/72/72 41/41/41
f 74/74/74 73/73/73 41/41/41
f 75/75/75 74/74/74 41/41/41
f 76/76/76 75/75/75 41/41/41
f 40/40/40 76/76/76 41/41/41
